<svg id="visual" viewBox="0 0 900 600" width="900" height="600" xmlns="http://www.w3.org/2000/svg" xmlns:xlink="http://www.w3.org/1999/xlink" version="1.1"><path d="M0 397L21.5 401.8C43 406.7 86 416.3 128.8 430.3C171.7 444.3 214.3 462.7 257.2 474.2C300 485.7 343 490.3 385.8 480.5C428.7 470.7 471.3 446.3 514.2 426.3C557 406.3 600 390.7 642.8 393.7C685.7 396.7 728.3 418.3 771.2 441C814 463.7 857 487.3 878.5 499.2L900 511L900 601L878.5 601C857 601 814 601 771.2 601C728.3 601 685.7 601 642.8 601C600 601 557 601 514.2 601C471.3 601 428.7 601 385.8 601C343 601 300 601 257.2 601C214.3 601 171.7 601 128.8 601C86 601 43 601 21.5 601L0 601Z" fill="#ffffff" stroke-linecap="round" stroke-linejoin="miter"></path></svg>